<!--?xml version="1.0" standalone="no"?-->
              <svg id="sw-js-blob-svg" viewBox="0 0 100 100" xmlns="http://www.w3.org/2000/svg" version="1.1">
                    <defs> 
                        <linearGradient id="sw-gradient" x1="0" x2="1" y1="1" y2="0">
                            <stop id="stop1" stop-color="rgba(225.433, 55, 248, 1)" offset="0%"></stop>
                            <stop id="stop2" stop-color="rgba(104.782, 31, 251, 1)" offset="100%"></stop>
                        </linearGradient>
                    </defs>
                <path fill="url(#sw-gradient)" d="M26.5,-31.8C32.9,-26.3,35.4,-16.5,37.1,-6.6C38.7,3.3,39.4,13.2,34.8,19.1C30.2,24.9,20.3,26.7,11,29.9C1.7,33.1,-6.9,37.8,-15.6,37.1C-24.4,36.4,-33.2,30.4,-36.8,22.2C-40.4,14.1,-38.6,3.8,-34.4,-3.6C-30.2,-11,-23.5,-15.5,-17.3,-21C-11.2,-26.4,-5.6,-32.9,2.3,-35.6C10.1,-38.3,20.2,-37.2,26.5,-31.8Z" width="100%" height="100%" transform="translate(50 50)" stroke-width="0" style="transition: all 0.3s ease 0s;" stroke="url(#sw-gradient)"></path>
              </svg>