<!--?xml version="1.0" standalone="no"?-->
              <svg id="sw-js-blob-svg" viewBox="0 0 100 100" xmlns="http://www.w3.org/2000/svg" version="1.1">
                    <defs> 
                        <linearGradient id="sw-gradient" x1="0" x2="1" y1="1" y2="0">
                            <stop id="stop1" stop-color="rgba(225.433, 55, 248, 1)" offset="0%"></stop>
                            <stop id="stop2" stop-color="rgba(104.782, 31, 251, 1)" offset="100%"></stop>
                        </linearGradient>
                    </defs>
                <path fill="url(#sw-gradient)" d="M12.1,-23.2C16.7,-18.4,22,-17.1,26.6,-13.8C31.2,-10.5,35,-5.3,32.3,-1.6C29.6,2.1,20.3,4.2,15.7,7.5C11.1,10.7,11.1,15.1,9.3,21.9C7.5,28.7,3.7,38,-0.7,39.2C-5.1,40.4,-10.3,33.5,-11.5,26.4C-12.8,19.3,-10.3,11.9,-15.1,7.4C-19.9,3,-32.1,1.5,-32.4,-0.2C-32.6,-1.8,-21,-3.6,-15.9,-7.5C-10.7,-11.4,-12.1,-17.4,-10.6,-23.9C-9,-30.4,-4.5,-37.4,-0.4,-36.8C3.8,-36.2,7.6,-27.9,12.1,-23.2Z" width="100%" height="100%" transform="translate(50 50)" stroke-width="0" style="transition: all 0.3s ease 0s;" stroke="url(#sw-gradient)"></path>
              </svg>